# xmcd
#
# Track frame offsets:
#	150
#	14960
#	29415
#	48971
#	71953
#	92237
#	113246
#	128280
#	143635
#	163430
#	178891
#	194092
#
# Disc length: 2846 seconds
#
# Revision: 0
# Processed by: cddbd v1.5.2PL0 Copyright (c) Steve Scherf et al.
# Submitted via: audiograbber 1.83.01
#
DISCID=b80b1c0c
DTITLE=The Hitman Blues Band - Pale Rider
DYEAR=2008
DGENRE=Blues
TTITLE0=Your Blues
TTITLE1=Trouble On The Line
TTITLE2=Blues Can't Hit (What The Blues Can't Catch)
TTITLE3=Red Hook
TTITLE4=I Know About The Blues
TTITLE5=Blessed Man
TTITLE6=Miss Catherine
TTITLE7=I'm Coming For You
TTITLE8=Calamity's Child
TTITLE9=This Too Shall Pass
TTITLE10=Pale Rider
TTITLE11=Death Letter
EXTD=http://www.hitmanbluesband.com
EXTT0=©2008 Russell Alexander/All Rights Reserved
EXTT1=©2008 Russell Alexander/All Rights Reserved
EXTT2=©2008 Russell Alexander/All Rights Reserved
EXTT3=©2008 Russell Alexander/All Rights Reserved
EXTT4=©2008 Russell Alexander/All Rights Reserved
EXTT5=©2008 Russell Alexander/All Rights Reserved
EXTT6=©2008 Russell Alexander/All Rights Reserved
EXTT7=©2008 Russell Alexander/All Rights Reserved
EXTT8=©2008 Russell Alexander/All Rights Reserved
EXTT9=©2008 Russell Alexander/All Rights Reserved
EXTT10=©2008 Russell Alexander/All Rights Reserved
EXTT11=© Son House/All Rights Reserved
PLAYORDER=
